<svg width="274" height="274" viewBox="0 0 274 274" fill="none" xmlns="http://www.w3.org/2000/svg">
<g clip-path="url(#clip0_3464_1892)">
<path d="M274 137C274.017 151.981 271.573 166.862 266.765 181.051C266.489 181.861 266.207 182.669 265.918 183.475C260.827 197.554 253.464 210.705 244.124 222.406C241.335 225.904 238.38 229.257 235.259 232.466C232.138 235.681 228.862 238.738 225.43 241.639C206.288 257.872 183.035 268.504 158.235 272.362H158.231C155.069 272.853 151.877 273.235 148.653 273.51C144.815 273.834 140.93 273.997 137 274C118.723 274.024 100.627 270.379 83.784 263.28C66.9413 256.182 51.6948 245.776 38.9478 232.677C38.052 231.761 37.1697 230.831 36.301 229.888C34.1366 227.542 32.0545 225.122 30.0549 222.629C28.9322 221.227 27.8364 219.803 26.7677 218.357C20.1848 209.464 14.7079 199.803 10.4574 189.587C8.64482 185.236 7.06188 180.793 5.71513 176.276C5.61786 175.956 5.52463 175.636 5.4314 175.315C5.22874 174.626 5.03284 173.933 4.84369 173.236C1.61937 161.428 -0.00964466 149.241 4.29541e-05 137C4.29541e-05 61.3379 61.3379 0 137 0C212.662 0 274 61.3379 274 137Z" fill="#F7F7F7"/>
<path d="M174.423 259.822L171.651 269.578C167.228 270.73 162.75 271.659 158.234 272.363H158.23C155.069 272.853 151.876 273.235 148.652 273.51L157.671 260.624L158.952 260.511L174.423 259.822Z" fill="#3F3D56"/>
<path d="M244.123 222.406C241.335 225.904 238.38 229.257 235.259 232.466L224.566 232.474L167.063 232.539L156.711 232.551L149.828 232.56L139.59 232.568L131.714 232.576L117.167 232.592L108.587 232.604L90.5171 232.62L81.8918 232.632L57.9897 232.657L42.9765 232.673L38.9475 232.677C38.0518 231.761 37.1695 230.831 36.3008 229.888C34.1363 227.542 32.0543 225.122 30.0547 222.629L38.3963 222.621L44.0789 222.617L57.2358 222.601L82.6254 222.576L91.2061 222.568L94.6757 222.564H94.6879L97.4117 222.56L98.6317 222.556L101.757 222.552H103.078L112.344 222.544L132.33 222.52L141.126 222.511L149.549 222.503L157.444 222.495L168.773 222.483L229.28 222.422L244.123 222.406Z" fill="#CCCCCC"/>
<path d="M98.9082 229.134C103.415 229.134 107.068 227.968 107.068 226.53C107.068 225.091 103.415 223.925 98.9082 223.925C94.4015 223.925 90.748 225.091 90.748 226.53C90.748 227.968 94.4015 229.134 98.9082 229.134Z" fill="#2F2E41"/>
<path d="M98.9082 227.398C103.415 227.398 107.068 226.232 107.068 224.794C107.068 223.355 103.415 222.189 98.9082 222.189C94.4015 222.189 90.748 223.355 90.748 224.794C90.748 226.232 94.4015 227.398 98.9082 227.398Z" fill="#2F2E41"/>
<path d="M97.4722 226.539L98.6882 226.52L98.3527 203.815C98.3039 200.11 99.2278 196.457 101.032 193.221C102.837 189.985 105.458 187.279 108.635 185.372L131.844 171.5L131.22 170.456L108.012 184.329C104.651 186.345 101.879 189.207 99.9705 192.629C98.0622 196.052 97.0851 199.915 97.1367 203.833L97.4722 226.539Z" fill="#2F2E41"/>
<path d="M128.29 178.784C128.29 180.414 129.612 181.736 131.242 181.736C132.872 181.736 134.193 180.414 134.193 178.784V160.38C134.193 158.75 132.872 157.429 131.242 157.429C129.612 157.429 128.29 158.75 128.29 160.38V178.784Z" fill="#01CAB9"/>
<path d="M131.139 128.522L162.967 166.134L190.104 177.75L197.337 163.69C190.701 155.795 169.049 146.319 169.049 146.319L139.65 119.949C139.597 119.755 139.54 119.561 139.47 119.369C139.058 118.241 138.361 117.238 137.448 116.457C136.535 115.676 135.436 115.145 134.257 114.913C133.078 114.681 131.859 114.758 130.719 115.135C129.578 115.512 128.554 116.176 127.745 117.065C126.936 117.953 126.37 119.035 126.102 120.206C125.834 121.377 125.872 122.598 126.213 123.75C126.555 124.902 127.187 125.946 128.05 126.782C128.913 127.618 129.977 128.217 131.139 128.522Z" fill="#A0616A"/>
<path d="M194.501 159.417L187.48 177.391L187.487 177.461C188.187 184.367 198.975 190.761 207.902 194.908C210.847 196.274 214.2 196.47 217.283 195.458C220.367 194.445 222.952 192.3 224.514 189.455C225.652 187.348 226.179 184.966 226.034 182.576C225.889 180.186 225.079 177.884 223.694 175.93L216.607 166.005L194.501 159.417Z" fill="#01CAB9"/>
<path d="M235.194 193.458L231.461 206.894L229.28 222.422L228.608 227.197L228.591 227.298L224.445 231.238L224.567 232.474L224.891 235.77L225.43 241.639C206.285 257.868 183.034 268.499 158.235 272.362C158.231 272.367 158.231 272.362 158.231 272.362C154.919 271.414 152.321 270.384 151.276 269.635C150.862 269.343 150.676 269.083 150.684 268.82C150.728 267.065 155.71 260.766 156.464 259.822L158.442 251.634L162.479 250.029L161.482 244.269L166.881 238.57L167.035 232.705L167.063 232.539L168.774 222.483L172.186 202.456L172.535 200.405L172.219 184.589L172.126 179.798L172.016 174.335C171.987 172.93 172.09 171.525 172.324 170.139C172.497 169.096 172.746 168.066 173.07 167.059C173.969 164.254 175.413 161.654 177.319 159.409C179.225 157.163 181.555 155.315 184.176 153.971C184.383 153.866 184.589 153.764 184.8 153.663C184.8 153.663 184.8 153.659 184.804 153.663C186.425 152.897 188.133 152.329 189.891 151.973L190.402 151.065L195.403 142.18L210.733 142.573L219.877 156.885L227.509 164.461C231.247 168.178 233.929 172.823 235.279 177.918C236.63 183.014 236.6 188.377 235.194 193.458Z" fill="#01CAB9"/>
<path d="M201.73 137.792C212.946 137.792 222.038 128.699 222.038 117.483C222.038 106.267 212.946 97.1752 201.73 97.1752C190.514 97.1752 181.422 106.267 181.422 117.483C181.422 128.699 190.514 137.792 201.73 137.792Z" fill="#A0616A"/>
<path d="M199.253 138.063C202.398 138.112 205.541 137.893 208.649 137.407C211.729 136.78 218.62 131.731 220.54 128.692C221.968 126.435 222.88 122.909 223.395 120.35C224.087 116.962 224.061 113.467 223.317 110.091C222.573 106.714 221.128 103.531 219.076 100.749C218.288 99.5849 217.199 98.6557 215.926 98.0597C215.813 98.0156 215.697 97.9765 215.579 97.943C213.724 97.4548 212.057 96.4232 210.792 94.9805C210.546 94.6888 210.28 94.415 209.996 94.1614C208.566 92.9549 206.871 92.1039 205.05 91.6779C202.109 90.891 197.854 91.6721 192.403 94.0018C189.664 95.1722 186.669 94.7486 184.364 94.2488C184.235 94.2238 184.101 94.2331 183.977 94.2758C183.852 94.3185 183.741 94.393 183.654 94.492C182.674 95.4124 181.382 95.9276 180.037 95.934C179.213 95.9702 178.349 97.1106 177.305 98.5977C177.068 98.9353 176.791 99.3293 176.592 99.5689L176.565 99.1085L176.099 99.6221C175.367 100.429 174.851 101.409 174.599 102.469C174.347 103.529 174.367 104.636 174.658 105.687C174.949 106.737 175.502 107.697 176.263 108.476C177.025 109.256 177.972 109.83 179.015 110.145C179.844 110.365 180.692 110.5 181.548 110.548C182.067 110.595 182.603 110.643 183.117 110.733C184.767 111.07 186.3 111.83 187.569 112.938C188.837 114.045 189.796 115.463 190.353 117.052C190.485 117.419 190.699 117.751 190.98 118.022C191.26 118.294 191.599 118.497 191.971 118.616C192.342 118.736 192.736 118.768 193.122 118.711C193.508 118.655 193.876 118.51 194.197 118.288C194.732 117.871 195.361 117.59 196.028 117.468C196.696 117.347 197.383 117.388 198.031 117.59C198.591 117.901 199.027 118.396 199.266 118.99C199.556 119.653 200.037 120.214 200.647 120.602C202.734 121.678 202.878 126.445 202.128 130.42C201.406 134.25 199.977 137.022 198.655 137.159C197.637 137.264 197.52 137.336 197.446 137.516L197.381 137.678L197.495 137.828C198.057 138.032 198.657 138.112 199.253 138.063Z" fill="#3F3D56"/>
<path d="M186.099 194.201L178.269 178.59C166.903 179.366 144.345 192.508 144.345 192.508L101.665 201.557C100.4 201.071 99.0304 200.926 97.6925 201.138C96.3546 201.35 95.0961 201.911 94.0437 202.763C92.9913 203.616 92.1821 204.731 91.6976 205.996C91.2131 207.261 91.0704 208.631 91.2838 209.969C91.4972 211.307 92.0592 212.564 92.9133 213.616C93.7673 214.667 94.8833 215.475 96.1488 215.958C97.4143 216.441 98.7848 216.582 100.122 216.367C101.46 216.152 102.717 215.589 103.767 214.733L158.059 210.842L186.099 194.201Z" fill="#A0616A"/>
<path d="M182.94 196.765L203.39 181.567L206.992 168.586C207.69 166.035 207.661 163.339 206.907 160.804C206.154 158.269 204.706 155.995 202.728 154.24C200.03 151.878 196.537 150.628 192.953 150.744C189.37 150.86 185.964 152.332 183.425 154.862C175.729 162.544 166.951 173.26 168.837 180.691L168.856 180.766L182.94 196.765Z" fill="#01CAB9"/>
<path d="M35.0523 176.766C35.028 176.803 35.0037 176.839 34.9753 176.88C34.1655 176.828 33.3533 176.827 32.5433 176.876C32.0813 176.904 31.6192 176.949 31.1571 177.01C30.5767 177.091 30.0343 177.345 29.601 177.74C29.1677 178.135 28.8637 178.651 28.7287 179.222C28.5938 179.792 28.6343 180.39 28.8448 180.937C29.0554 181.484 29.4262 181.954 29.9087 182.287L29.9574 182.319C29.9938 182.344 30.0222 182.364 30.0587 182.388C24.6663 187.174 17.6649 189.745 10.4571 189.587C8.64453 185.236 7.06159 180.793 5.71484 176.276C7.91819 174.208 10.6162 172.741 13.5498 172.016C19.427 170.597 25.9852 172.198 31.8664 171.615C34.6956 171.335 36.6614 174.42 35.0523 176.766Z" fill="white"/>
<path d="M40.1962 131.605C40.18 131.65 40.1638 131.698 40.1435 131.747C39.6815 131.775 39.2194 131.824 38.7573 131.885C38.1771 131.966 37.6348 132.22 37.2016 132.614C36.7683 133.008 36.4643 133.524 36.3293 134.094C36.1944 134.664 36.2348 135.262 36.4453 135.809C36.6558 136.355 37.0265 136.826 37.5089 137.158L37.5576 137.195C36.793 138.445 35.9339 139.634 34.9878 140.753C32.3121 143.865 29.0225 146.39 25.3252 148.171C21.6278 149.952 17.6025 150.949 13.5015 151.101C13.234 151.109 12.9746 151.118 12.7111 151.118C12.0283 157.231 10.5512 163.229 8.31738 168.96C7.47002 171.129 6.50666 173.25 5.43146 175.315C5.2288 174.626 5.0329 173.933 4.84375 173.236C4.89239 173.143 4.93697 173.054 4.98156 172.96C6.05242 170.75 6.99832 168.48 7.81478 166.163C8.48355 164.262 9.06722 162.337 9.56579 160.387C12.2598 149.799 12.4043 138.722 9.98733 128.067C7.80108 125.009 6.60431 121.355 6.55827 117.597C6.53871 116.244 6.71483 114.895 7.08114 113.592C7.39324 113.799 7.72156 113.994 8.04582 114.176C8.14715 114.233 8.25253 114.29 8.35791 114.346L8.39439 114.367C8.75453 114.562 9.16333 114.648 9.57153 114.616C9.97973 114.584 10.3699 114.434 10.6951 114.185C11.0202 113.936 11.2664 113.599 11.4041 113.213C11.5417 112.827 11.5649 112.41 11.4708 112.012C11.4141 111.764 11.3533 111.517 11.2965 111.27C11.2074 110.889 11.1141 110.508 11.029 110.127C11.0145 110.089 11.0036 110.05 10.9966 110.009C10.8953 109.576 10.7899 109.146 10.6885 108.712C11.4966 108.219 12.4081 107.919 13.3515 107.837C16.5982 107.577 19.5976 110.297 20.315 113.471C21.0446 116.649 19.8327 120.029 17.8142 122.583C16.0834 124.767 13.8095 126.441 11.4424 127.933C11.4951 128.176 11.5559 128.415 11.6086 128.654C12.5544 133.097 13.0648 137.622 13.1326 142.164C14.5756 137.859 17.7007 133.348 20.5298 130.831C23.7522 127.965 28 126.291 31.956 124.378C36.7023 122.08 41.9635 126.632 40.1962 131.605Z" fill="white"/>
<path d="M258.161 194.341C258.837 195.201 259.539 196.056 260.24 196.915C257.824 201.875 255.109 206.683 252.109 211.312C251.886 211.154 251.663 210.996 251.44 210.838C251.405 210.819 251.371 210.797 251.339 210.773C250.508 210.181 249.673 209.598 248.842 209.006V209.002C248.157 206.669 247.774 204.258 247.703 201.828C248.132 201.729 248.52 201.502 248.814 201.175C249.109 200.849 249.296 200.44 249.351 200.004C249.405 199.568 249.324 199.125 249.119 198.736C248.913 198.348 248.593 198.032 248.202 197.831C248.092 197.641 248.015 197.503 247.906 197.308C247.91 197.26 247.918 197.207 247.922 197.158C248.558 192.096 255.011 190.329 258.161 194.341Z" fill="white"/>
<path d="M265.435 176.993C265.922 178.331 266.365 179.683 266.765 181.051C266.489 181.861 266.207 182.669 265.918 183.475C265.808 183.049 265.695 182.623 265.577 182.198C264.918 179.831 264.126 177.504 263.206 175.226C262.452 173.358 261.617 171.528 260.701 169.738C255.72 160.013 248.502 151.609 239.64 145.216C235.978 144.369 232.664 142.42 230.144 139.631C229.235 138.628 228.474 137.501 227.886 136.283C228.259 136.23 228.632 136.157 228.997 136.08C229.11 136.056 229.228 136.027 229.341 136.003L229.386 135.995C229.784 135.902 230.148 135.697 230.433 135.402C230.717 135.108 230.911 134.738 230.99 134.336C231.069 133.935 231.031 133.519 230.879 133.138C230.728 132.758 230.469 132.43 230.136 132.193C229.929 132.043 229.718 131.897 229.511 131.751C229.195 131.52 228.875 131.301 228.555 131.074C228.521 131.053 228.489 131.03 228.458 131.005C228.093 130.746 227.728 130.495 227.367 130.231C227.647 129.328 228.131 128.501 228.782 127.815C231.048 125.477 235.093 125.529 237.735 127.434C240.382 129.339 241.712 132.675 241.882 135.926C242.032 138.71 241.432 141.467 240.642 144.154C240.84 144.3 241.047 144.438 241.246 144.588C244.895 147.292 248.27 150.348 251.322 153.712C249.559 149.529 248.918 144.073 249.376 140.316C249.899 136.035 251.979 131.97 253.681 127.921C255.72 123.057 262.675 122.992 264.637 127.888C264.657 127.937 264.677 127.982 264.694 128.03C264.365 128.358 264.049 128.699 263.745 129.052C263.363 129.496 263.125 130.045 263.061 130.627C262.996 131.21 263.109 131.798 263.385 132.315C263.66 132.831 264.086 133.253 264.605 133.524C265.124 133.795 265.713 133.904 266.295 133.834L266.355 133.826C266.608 135.271 266.752 136.733 266.785 138.2C266.835 142.303 266.038 146.372 264.442 150.152C262.846 153.933 260.487 157.343 257.511 160.168C257.317 160.351 257.126 160.529 256.928 160.703C258.805 163.374 260.492 166.173 261.974 169.082C263.29 171.645 264.446 174.287 265.435 176.993Z" fill="white"/>
</g>
<defs>
<clipPath id="clip0_3464_1892">
<rect width="274" height="274" fill="white"/>
</clipPath>
</defs>
</svg>
